<svg id="Layer_1" data-name="Layer 1" xmlns="http://www.w3.org/2000/svg" viewBox="0 0 60 60"><defs><style>.cls-1{fill:#fff;fill-rule:evenodd;}</style></defs><path class="cls-1" d="M30,6A24,24,0,1,0,54,30,24,24,0,0,0,30,6ZM17.52,25.78H23V42.5H17.52Zm5.8-5.17a2.86,2.86,0,0,0-3-2.89,2.89,2.89,0,1,0-.07,5.78h0A2.86,2.86,0,0,0,23.32,20.61Zm13,4.78c3.58,0,6.27,2.39,6.27,7.53V42.5H37.14V33.56c0-2.25-.79-3.78-2.76-3.78a3,3,0,0,0-2.79,2,3.94,3.94,0,0,0-.18,1.35V42.5H26S26,27.35,26,25.78h5.44v2.37A5.38,5.38,0,0,1,36.31,25.39Z"/></svg>