<svg id="Layer_1" data-name="Layer 1" xmlns="http://www.w3.org/2000/svg" viewBox="0 0 60 60"><defs><style>.cls-1{fill:#299697;}</style></defs><path class="cls-1" d="M30,6A24,24,0,1,0,54,30,24,24,0,0,0,30,6ZM42.37,43.16c0,1.45-.56,2-2,2H19.61c-1.42,0-2-.58-2-2V16.84c0-1.45.56-2,2-2h12.9a2.63,2.63,0,0,1,2.24.95l6.7,6.85a2.75,2.75,0,0,1,.92,2.29Z"/><path class="cls-1" d="M19.34,42.86c0,.37.17.54.53.54H40.1c.36,0,.52-.14.52-.54V36.34H19.34Z"/><path class="cls-1" d="M37.29,29.87V28.75H33.73v6h1.32V32.33h2.11V31.25H35.05V29.87Z"/><path class="cls-1" d="M40.36,24.09H35.25c-1.42,0-2-.57-2-2V16.84c0-.2-.07-.27-.27-.27H19.87c-.36,0-.53.13-.53.54V27.2H40.62V24.36C40.62,24.16,40.56,24.09,40.36,24.09Z"/><path class="cls-1" d="M31.88,29.36a3.64,3.64,0,0,0-2.37-.64,9.63,9.63,0,0,0-1.79.13v5.87a11.29,11.29,0,0,0,1.49.11,4,4,0,0,0,2.7-.78,3.06,3.06,0,0,0,1-2.43A2.71,2.71,0,0,0,31.88,29.36Zm-2.41,4.39a1.68,1.68,0,0,1-.46,0V29.8a1.81,1.81,0,0,1,.59-.07,1.7,1.7,0,0,1,1.85,1.89C31.45,33.07,30.69,33.75,29.47,33.75Z"/><path class="cls-1" d="M26.24,29.19a2.87,2.87,0,0,0-1.78-.47,10.46,10.46,0,0,0-1.78.13v5.91H24V32.63a1.54,1.54,0,0,0,.46,0A2.56,2.56,0,0,0,26.34,32a2,2,0,0,0,.53-1.41A1.85,1.85,0,0,0,26.24,29.19Zm-1.82,2.4a1.18,1.18,0,0,1-.42,0V29.8a1.51,1.51,0,0,1,.56-.07c.66,0,1,.34,1,.88A1,1,0,0,1,24.42,31.59Z"/></svg>