<svg id="Layer_1" data-name="Layer 1" xmlns="http://www.w3.org/2000/svg" viewBox="0 0 44 44"><defs><style>.cls-1{fill:#fff;stroke:#fff;stroke-miterlimit:10;stroke-width:5px;}</style></defs><path class="cls-1" d="M35.55,25.37h3l-1.22-2.64h-10V18A12.35,12.35,0,0,0,15,5.61h-.81l-.22,0h-.13l-.22,0-.12,0-.24,0h-.09c-.34,0-.68.12-1,.2h0l-.3.07h0l-.29.09h0a12.36,12.36,0,0,0-6.15,4.19V4L2.61,5.24V40l2.64-1.22V37.32h0V25.37h19.4v12h0V40l2.65-1.22V25.37h8.25ZM15,8.72a9.7,9.7,0,0,1,9.71,9.7v4.31H5.25V18.42A9.7,9.7,0,0,1,15,8.72Z"/></svg>